<svg width="512" height="512" viewBox="0 0 512 512" fill="none" xmlns="http://www.w3.org/2000/svg">
<path d="M238.2 45C235.7 46.6 99.7996 162.4 91.9996 169.6C90.7996 170.8 93.9996 171 113 171H135.5L186.5 126.9C248.6 73.1 246.6 74.7 249 76C250 76.5 275.3 98.1 305.2 124L359.5 171H382C401.1 171 404.2 170.8 403 169.6C395.6 162.7 258 45.4 256.1 44.4C252 42.3 242.1 42.6 238.2 45Z" fill="#DAD4BE"/>
<path d="M197.8 128.3L149.1 170.5L149 208.1V245.8L151.4 247.3C154.3 249.2 157 254.8 157 258.8C157 261.7 157.2 261.9 163.8 263.4C234.4 279.4 238.8 280.2 243.8 278.6C251 276.2 266 273.4 303.1 267.5C321.8 264.5 337.3 262 337.5 262C337.8 262 338 260.6 338 258.9C338 254.8 340.7 249.2 343.6 247.3L346 245.8V208.1L345.9 170.5L297.3 128.5C270.5 105.4 248.2 86.4001 247.6 86.3001C247 86.2001 224.6 105.1 197.8 128.3ZM254.9 109C267.1 111.3 279.4 121.1 284.7 132.7C287.1 137.7 287.4 139.8 287.5 148.6C287.5 158.2 287.3 158.9 283.7 166.2C279.6 174.5 272.9 181.5 266 184.7L262.1 186.5L262 222.8V259L258.6 262.8L255.2 266.5L235.1 266.8L215 267.1L212.5 264.6C210.3 262.3 210 261.3 210 254.3C210.1 242.9 212.2 241 224.9 241H233V236.5V232H223.6C214.6 232 214 231.9 212.1 229.4C210.4 227.3 210 225.3 210 219.5C210 213.7 210.4 211.7 212.1 209.6C214 207.1 214.6 207 223.6 207H233V196.7L232.9 186.5L229 184.7C222.1 181.5 215.4 174.5 211.3 166.2C207.7 159 207.5 158.1 207.5 149.1C207.6 135.8 210 129.8 218.9 120.9C229.8 110.1 241.1 106.4 254.9 109Z" fill="#B7B899"/>
<path d="M237.3 118.8C210.4 128.4 208.6 165.8 234.5 177.6C237.5 179 240.5 181 241 182C241.6 183 242 190.2 242 197.9C242 216 242 216 228.5 216H219V219.5V223H228.5C241.5 223 242 223.5 242 236.9C242 249.9 241.9 250 228.9 250H219V254V258L235.8 257.8L252.5 257.5L253 220C253.3 199.4 253.8 182 254.2 181.4C254.6 180.8 257.9 178.9 261.5 177.1C273.4 171.2 279.7 160.2 278.8 146.6C277.7 130.2 265.6 118.3 249 117.3C244.4 117.1 241 117.5 237.3 118.8ZM255.8 132.1C264.4 136.3 268.4 147.3 264.6 156.3C260.5 166.2 247.4 170.5 238.2 165C232.6 161.6 229.6 156.4 229.2 149.6C228.9 144.2 229.2 143 231.8 138.9C237.1 130.6 246.9 127.8 255.8 132.1Z" fill="#3E3E3E"/>
<path d="M241.1 141.6C238.5 143.8 238 144.9 238 148.6C238 156 244.5 160.7 251.1 158C255.2 156.3 257 153.3 257 148.4C257 144.9 256.5 143.7 253.9 141.6C252 139.9 249.6 139 247.5 139C245.4 139 243 139.9 241.1 141.6Z" fill="#B7B899"/>
<path d="M103.299 241.2C102.099 241.8 100.799 243 100.499 243.9C95.7992 255.3 57.7992 365.4 57.6992 367.8C57.6992 369.6 58.2992 371.7 59.0992 372.5C60.6992 374.1 96.7992 387 99.7992 387C100.899 387 102.699 386.2 103.799 385.2C106.299 383.1 147.999 264.4 147.999 259.5C147.999 257.7 147.199 255.6 146.199 254.7C144.499 253.1 113.699 241.8 107.999 240.6C106.599 240.3 104.499 240.6 103.299 241.2Z" fill="#B7B899"/>
<path d="M386 240.7C385.2 241 376.9 243.9 367.6 247.1C358.3 250.4 349.8 253.8 348.8 254.7C347.8 255.6 347 257.7 347 259.5C347 262 378.4 353.7 387.6 378.3C390.2 385.2 392.1 387 396.2 386.9C397.5 386.9 406.8 383.9 417 380.2C433.3 374.2 435.7 373.1 436.9 370.6C438.1 367.9 437.1 364.7 418.9 312.6C393.9 241 394.5 242.5 391.4 241.1C388.7 239.9 388.3 239.9 386 240.7Z" fill="#B7B899"/>
<path d="M135.7 324.4C125.4 353.8 117 378.3 117 378.9C117 379.5 119.5 381.8 122.6 384.1L128.2 388.2L136.9 379.7C149.1 367.5 154.8 365.6 164.7 370.5C170.9 373.6 175 379.2 175.7 385.4L176.2 389.8L181 390.4C190 391.6 198 400.1 198 408.5C198 411.8 198.2 412 201.3 412C208.5 412.1 218.4 419.6 219.7 426.1C220 427.7 220.6 429 221.1 429C221.6 429 223.5 430.4 225.3 432C227.2 433.7 229.2 435 229.7 435C232 435 238.8 441.1 240.6 444.7C243.3 450.1 266.2 471.7 270.1 472.5C280.1 474.7 293.1 463.9 291.3 454.9C291 453.1 284.5 446.2 271.9 434C261.5 424 253 415.2 253 414.5C253 412.7 255.8 410 257.6 410C258.4 410 267.8 418.3 278.5 428.5C296.7 445.9 298.2 447 301.7 447C306.8 447 311.8 444.2 315.8 439.1C318.3 435.7 319 433.9 319 430.2V425.5L299.3 406.4C279.9 387.5 279.6 387.2 281.2 384.9C282 383.6 283.7 382.5 284.8 382.5C286.1 382.5 293.8 389.1 305.8 400.6C318.4 412.6 325.7 418.9 327.5 419.2C333.6 420.4 341.6 415.7 345 409C348.9 401.4 349 401.6 325.3 377.7C290 342.1 283.4 337 271.9 336.2C264.8 335.7 260.6 337 250.5 343.1C246.1 345.7 238.9 349.1 234.5 350.5C227.4 352.9 225.4 353.2 216.5 352.8C203.8 352.2 197 349.7 189.4 342.8C182.8 336.7 179.8 331.2 179.7 325C179.6 316.5 181.7 314.4 205.6 300.2C217.4 293.3 227 287.3 227 287C227 286.4 157.7 271 155.5 271C154.9 271 146 295 135.7 324.4Z" fill="#3E3E3E"/>
<path d="M301.5 276.6C283.4 279.5 263.1 283.1 256.6 284.5L244.6 287L217.8 303.1C203.1 311.9 190.3 320.1 189.5 321.4C186.1 326.5 191.9 335.8 201.4 340.7C205.5 342.9 208.3 343.4 215.7 343.8C226.9 344.3 235.1 342.2 245.5 335.8C264.6 324.3 276.4 324 292.5 335C295.3 336.8 309.3 350 323.6 364.3C338 378.5 350.4 390 351.1 389.8C354.6 388.9 377 376.9 377 375.9C377 375.3 368.8 351.4 358.8 322.9L340.7 271L337.6 271.1C335.9 271.2 319.7 273.6 301.5 276.6Z" fill="#3E3E3E"/>
<path d="M151.5 377.9C150.4 378.4 144.4 384 138.3 390.2C127.2 401.5 127 401.8 127 406.3C127 414.1 134 419.7 141.2 417.5C144 416.6 163.6 397.6 165.6 393.8C169.3 386.6 165.2 378.3 157.5 377.5C155.3 377.2 152.6 377.4 151.5 377.9Z" fill="#3E3E3E"/>
<path d="M173.5 400.2C170.4 401.9 152 420.2 150.4 423.2C146 431.5 153.1 441.3 162.3 439.6C166.7 438.8 188.9 416.6 189.1 412.9C189.4 405.6 188.2 402.7 184 400.5C180.6 398.7 176.3 398.6 173.5 400.2Z" fill="#3E3E3E"/>
<path d="M194.498 422.9C188.998 426.2 172.098 445.1 171.398 448.6C169.998 456 177.198 462.9 184.698 461.5C189.498 460.6 210.598 439.2 211.598 434.2C213.498 424.6 202.998 417.6 194.498 422.9Z" fill="#3E3E3E"/>
<path d="M217 444.7C215.6 445.6 209.9 451.2 204.3 457.1C194.4 467.3 194 468 194 472.2C194 477.5 196.1 480.7 200.7 482.6C206.5 485.1 210.3 483.3 220.1 473.3C232.6 460.4 234 458.5 234 453.8C234 448.2 228.9 443 223.4 443C221.2 443 218.4 443.8 217 444.7Z" fill="#3E3E3E"/>
<path d="M240.899 463.2C240.199 464.5 236.099 469.2 231.699 473.7L223.799 481.9L227.799 482.9C241.399 486.6 254.299 473.5 246.399 464.1C243.299 460.4 242.499 460.3 240.899 463.2Z" fill="#3E3E3E"/>
</svg>
