<svg width="70" height="70" viewBox="0 0 70 70" fill="none" xmlns="http://www.w3.org/2000/svg">
<path d="M33.5234 0.192169C33.0449 0.301781 32.293 0.589508 31.8555 0.836128C30.8027 1.42529 0.464844 26.7589 0.205078 27.2658C0.0957031 27.4713 0 27.9783 0 28.3756C0 29.7046 0.833984 30.5404 2.16016 30.5404C2.55664 30.5404 3.02148 30.4719 3.18555 30.376C3.5957 30.1705 5.83789 28.2934 6.35742 27.7454C6.58984 27.4987 12.8652 22.2101 20.3164 15.9897C29.2715 8.50882 34.043 4.61767 34.3711 4.50806C35.0273 4.30254 35.6426 4.41216 36.3262 4.89169C36.627 5.09721 42.3555 9.83784 49.0684 15.4417L61.25 25.6354V44.8171C61.25 66.054 61.3184 64.5743 60.375 65.2457C59.9512 65.5471 59.9102 65.5471 54.0449 65.5882L48.125 65.6293V53.6681C48.125 46.8723 48.0566 41.2685 47.9883 40.6793C47.6191 37.8295 45.2949 35.4729 42.4512 35.0618C41.9316 34.9933 38.5684 34.9248 35 34.9248C31.4316 34.9248 28.082 34.9933 27.5488 35.0618C24.7051 35.4729 22.3809 37.8295 22.0117 40.6793C21.9434 41.2685 21.875 46.8723 21.875 53.6681V65.6293L15.9688 65.5882C10.0898 65.5471 10.0488 65.5471 9.625 65.2457C8.69531 64.588 8.75 65.4238 8.75 50.5853C8.75 42.8852 8.69531 36.9526 8.61328 36.6375C8.42188 35.788 7.61523 35.1166 6.6582 34.9933C5.75586 34.8837 5.18164 35.1303 4.67578 35.8839L4.375 36.336L4.40234 50.7361L4.44336 65.1361L4.93555 66.1637C5.79688 67.9448 7.0957 69.1231 8.85938 69.7123C9.69336 70 9.83008 70 35 70C60.252 70 60.3066 70 61.1406 69.7123C63.1777 69.0272 64.8184 67.342 65.4199 65.3005C65.5977 64.6976 65.625 62.2725 65.625 47.0915C65.625 37.4595 65.6523 29.5813 65.6934 29.5813C65.7344 29.5813 66.0352 29.8006 66.3906 30.0609C66.9375 30.4856 67.1152 30.5404 67.7852 30.5404C69.1797 30.5404 70 29.732 70 28.3756C70 27.9783 69.918 27.485 69.8086 27.2795C69.6992 27.074 66.9922 24.7174 63.793 22.0457L57.9688 17.1817V13.0713C57.9688 9.22129 57.9551 8.93356 57.6953 8.50882C57.2852 7.85117 56.6699 7.52234 55.7812 7.52234C54.8926 7.52234 54.2773 7.85117 53.8672 8.50882C53.6211 8.90616 53.5938 9.20759 53.5938 11.1943C53.5938 12.4274 53.5391 13.4139 53.4844 13.3865C53.416 13.3591 50.1211 10.6325 46.1699 7.31681C42.2051 4.00111 38.6094 1.08275 38.1582 0.836128C37.3105 0.370285 35.8477 -0.0133514 34.9316 0.000350952C34.6309 0.000350952 34.002 0.0962601 33.5234 0.192169ZM42.875 39.6791C43.791 40.3368 43.75 39.6243 43.75 53.2708V65.6156H35H26.25L26.2773 53.1064L26.3184 40.6108L26.6191 40.1861C27.2617 39.2818 27.043 39.3092 35.1367 39.3503L42.4512 39.3777L42.875 39.6791Z" fill="#B7B899"/>
<path d="M39.0607 39.7477C39.2931 40.1724 39.3068 41.0356 39.3478 52.9145L39.3751 65.6156H41.5626H43.7501V53.5859C43.7501 45.4885 43.6954 41.3918 43.5997 41.0493C43.3947 40.3094 42.7111 39.5969 42.0411 39.4462C41.7404 39.3777 40.8927 39.3092 40.1544 39.3092H38.8146L39.0607 39.7477Z" fill="#8A909A"/>
<path d="M27.7949 39.4599C27.207 39.6243 26.5645 40.3094 26.3867 40.926C26.3047 41.2548 26.25 45.6529 26.25 53.5174V65.6156H32.8125H39.375L39.3477 52.9145C39.3066 41.0356 39.293 40.1724 39.0605 39.7477L38.8145 39.3092L33.5234 39.3229C30.6113 39.3229 28.041 39.3914 27.7949 39.4599ZM33.9199 50.5853C35.3691 51.5581 35.3691 53.3667 33.9199 54.3395C32.5801 55.2438 30.625 54.134 30.625 52.4624C30.625 51.2704 31.623 50.2702 32.8125 50.2702C33.25 50.2702 33.6055 50.3661 33.9199 50.5853Z" fill="#3E3E3E"/>
</svg>
